<mxfile host="app.diagrams.net" modified="2021-11-18T04:02:16.968Z" agent="5.0 (Windows NT 10.0; Win64; x64) AppleWebKit/537.36 (KHTML, like Gecko) Chrome/95.0.4638.69 Safari/537.36" etag="B3mfE48S9fABPrx3Kqs8" version="15.7.4" type="github">
  <diagram id="C5RBs43oDa-KdzZeNtuy" name="Page-1">
    <mxGraphModel dx="1483" dy="840" grid="1" gridSize="10" guides="1" tooltips="1" connect="1" arrows="1" fold="1" page="1" pageScale="1" pageWidth="827" pageHeight="1169" math="0" shadow="0">
      <root>
        <mxCell id="WIyWlLk6GJQsqaUBKTNV-0" />
        <mxCell id="WIyWlLk6GJQsqaUBKTNV-1" parent="WIyWlLk6GJQsqaUBKTNV-0" />
        <mxCell id="R-zWGBTZfVwNPA_6gyD4-0" value="" style="edgeStyle=orthogonalEdgeStyle;rounded=0;orthogonalLoop=1;jettySize=auto;html=1;" edge="1" parent="WIyWlLk6GJQsqaUBKTNV-1" source="WIyWlLk6GJQsqaUBKTNV-3" target="WIyWlLk6GJQsqaUBKTNV-7">
          <mxGeometry relative="1" as="geometry" />
        </mxCell>
        <mxCell id="WIyWlLk6GJQsqaUBKTNV-3" value="&lt;b&gt;0x66 &amp;amp; 0x99&lt;br&gt;&lt;/b&gt;Enable Reset &amp;amp; Reset" style="rounded=1;whiteSpace=wrap;html=1;fontSize=12;glass=0;strokeWidth=1;shadow=0;" parent="WIyWlLk6GJQsqaUBKTNV-1" vertex="1">
          <mxGeometry x="155" y="70" width="130" height="50" as="geometry" />
        </mxCell>
        <mxCell id="R-zWGBTZfVwNPA_6gyD4-2" value="" style="edgeStyle=orthogonalEdgeStyle;rounded=0;orthogonalLoop=1;jettySize=auto;html=1;" edge="1" parent="WIyWlLk6GJQsqaUBKTNV-1" source="WIyWlLk6GJQsqaUBKTNV-7" target="R-zWGBTZfVwNPA_6gyD4-1">
          <mxGeometry relative="1" as="geometry" />
        </mxCell>
        <mxCell id="WIyWlLk6GJQsqaUBKTNV-7" value="Delay&lt;br&gt;(Approx. 40us)" style="rounded=1;whiteSpace=wrap;html=1;fontSize=12;glass=0;strokeWidth=1;shadow=0;" parent="WIyWlLk6GJQsqaUBKTNV-1" vertex="1">
          <mxGeometry x="172.5" y="140" width="95" height="40" as="geometry" />
        </mxCell>
        <mxCell id="WIyWlLk6GJQsqaUBKTNV-8" value="SR = 0x00" style="rounded=0;html=1;jettySize=auto;orthogonalLoop=1;fontSize=11;endArrow=block;endFill=0;endSize=8;strokeWidth=1;shadow=0;labelBackgroundColor=none;edgeStyle=orthogonalEdgeStyle;entryX=0.5;entryY=0;entryDx=0;entryDy=0;" parent="WIyWlLk6GJQsqaUBKTNV-1" source="WIyWlLk6GJQsqaUBKTNV-10" target="R-zWGBTZfVwNPA_6gyD4-22" edge="1">
          <mxGeometry x="0.2004" y="30" relative="1" as="geometry">
            <mxPoint as="offset" />
            <mxPoint x="220" y="450" as="targetPoint" />
          </mxGeometry>
        </mxCell>
        <mxCell id="WIyWlLk6GJQsqaUBKTNV-9" value="SR = 0x03" style="edgeStyle=orthogonalEdgeStyle;rounded=0;html=1;jettySize=auto;orthogonalLoop=1;fontSize=11;endArrow=block;endFill=0;endSize=8;strokeWidth=1;shadow=0;labelBackgroundColor=none;" parent="WIyWlLk6GJQsqaUBKTNV-1" source="WIyWlLk6GJQsqaUBKTNV-10" target="WIyWlLk6GJQsqaUBKTNV-12" edge="1">
          <mxGeometry x="-0.1429" y="10" relative="1" as="geometry">
            <mxPoint as="offset" />
          </mxGeometry>
        </mxCell>
        <mxCell id="WIyWlLk6GJQsqaUBKTNV-10" value="&lt;b&gt;0x05&lt;/b&gt;&lt;br&gt;RDSR" style="rhombus;whiteSpace=wrap;html=1;shadow=0;fontFamily=Helvetica;fontSize=12;align=center;strokeWidth=1;spacing=6;spacingTop=-4;" parent="WIyWlLk6GJQsqaUBKTNV-1" vertex="1">
          <mxGeometry x="170" y="330" width="100" height="80" as="geometry" />
        </mxCell>
        <mxCell id="R-zWGBTZfVwNPA_6gyD4-21" style="edgeStyle=orthogonalEdgeStyle;rounded=0;orthogonalLoop=1;jettySize=auto;html=1;entryX=0.5;entryY=0;entryDx=0;entryDy=0;fontSize=12;exitX=0.5;exitY=0;exitDx=0;exitDy=0;" edge="1" parent="WIyWlLk6GJQsqaUBKTNV-1" source="WIyWlLk6GJQsqaUBKTNV-12" target="WIyWlLk6GJQsqaUBKTNV-10">
          <mxGeometry relative="1" as="geometry">
            <Array as="points">
              <mxPoint x="375" y="310" />
              <mxPoint x="220" y="310" />
            </Array>
          </mxGeometry>
        </mxCell>
        <mxCell id="WIyWlLk6GJQsqaUBKTNV-12" value="Repeat" style="rounded=1;whiteSpace=wrap;html=1;fontSize=12;glass=0;strokeWidth=1;shadow=0;" parent="WIyWlLk6GJQsqaUBKTNV-1" vertex="1">
          <mxGeometry x="340" y="350" width="70" height="40" as="geometry" />
        </mxCell>
        <mxCell id="R-zWGBTZfVwNPA_6gyD4-6" value="" style="edgeStyle=orthogonalEdgeStyle;rounded=0;orthogonalLoop=1;jettySize=auto;html=1;fontSize=12;" edge="1" parent="WIyWlLk6GJQsqaUBKTNV-1" source="R-zWGBTZfVwNPA_6gyD4-1" target="R-zWGBTZfVwNPA_6gyD4-5">
          <mxGeometry relative="1" as="geometry" />
        </mxCell>
        <mxCell id="R-zWGBTZfVwNPA_6gyD4-14" value="" style="edgeStyle=orthogonalEdgeStyle;rounded=0;orthogonalLoop=1;jettySize=auto;html=1;fontSize=12;" edge="1" parent="WIyWlLk6GJQsqaUBKTNV-1" source="R-zWGBTZfVwNPA_6gyD4-1" target="R-zWGBTZfVwNPA_6gyD4-13">
          <mxGeometry relative="1" as="geometry" />
        </mxCell>
        <mxCell id="R-zWGBTZfVwNPA_6gyD4-1" value="&lt;b&gt;0x06 &amp;amp; 0x05&lt;br&gt;&lt;/b&gt;Write Enable &amp;amp; RDSR" style="rounded=1;whiteSpace=wrap;html=1;fontSize=12;glass=0;strokeWidth=1;shadow=0;" vertex="1" parent="WIyWlLk6GJQsqaUBKTNV-1">
          <mxGeometry x="155" y="200" width="130" height="40" as="geometry" />
        </mxCell>
        <mxCell id="R-zWGBTZfVwNPA_6gyD4-4" value="&lt;div style=&quot;text-align: left&quot;&gt;&lt;b&gt;*&lt;/b&gt;&lt;span style=&quot;font-size: 10px&quot;&gt; RDSR = Read Status Register&lt;/span&gt;&lt;/div&gt;&lt;font&gt;&lt;div style=&quot;text-align: left&quot;&gt;&lt;span style=&quot;font-size: 10px&quot;&gt;&amp;nbsp; &amp;nbsp;WRSR = Write Status Register&lt;/span&gt;&lt;/div&gt;&lt;span style=&quot;font-size: 10px&quot;&gt;&lt;div style=&quot;text-align: left&quot;&gt;&lt;span&gt;&amp;nbsp; &amp;nbsp;SR = Status Register&lt;/span&gt;&lt;/div&gt;&lt;/span&gt;&lt;/font&gt;" style="text;html=1;strokeColor=none;fillColor=none;align=center;verticalAlign=middle;whiteSpace=wrap;rounded=0;" vertex="1" parent="WIyWlLk6GJQsqaUBKTNV-1">
          <mxGeometry x="285" y="260" width="160" height="30" as="geometry" />
        </mxCell>
        <mxCell id="R-zWGBTZfVwNPA_6gyD4-5" value="&lt;b&gt;0x02&lt;/b&gt;&lt;br&gt;WEL = 1" style="ellipse;whiteSpace=wrap;html=1;rounded=1;shadow=0;strokeWidth=1;glass=0;" vertex="1" parent="WIyWlLk6GJQsqaUBKTNV-1">
          <mxGeometry x="320" y="195" width="90" height="50" as="geometry" />
        </mxCell>
        <mxCell id="R-zWGBTZfVwNPA_6gyD4-18" value="" style="edgeStyle=orthogonalEdgeStyle;rounded=0;orthogonalLoop=1;jettySize=auto;html=1;fontSize=12;" edge="1" parent="WIyWlLk6GJQsqaUBKTNV-1" source="R-zWGBTZfVwNPA_6gyD4-13" target="WIyWlLk6GJQsqaUBKTNV-10">
          <mxGeometry relative="1" as="geometry" />
        </mxCell>
        <mxCell id="R-zWGBTZfVwNPA_6gyD4-13" value="&lt;b&gt;0x01 &amp;amp; 0x03/0x0&lt;u&gt;2&lt;/u&gt;&lt;br&gt;&lt;/b&gt;WRSR &amp;amp; QE=1" style="whiteSpace=wrap;html=1;rounded=1;shadow=0;strokeWidth=1;glass=0;" vertex="1" parent="WIyWlLk6GJQsqaUBKTNV-1">
          <mxGeometry x="155" y="260" width="130" height="40" as="geometry" />
        </mxCell>
        <mxCell id="R-zWGBTZfVwNPA_6gyD4-29" style="edgeStyle=orthogonalEdgeStyle;rounded=0;orthogonalLoop=1;jettySize=auto;html=1;entryX=0.5;entryY=0;entryDx=0;entryDy=0;fontSize=9;exitX=0.5;exitY=1;exitDx=0;exitDy=0;" edge="1" parent="WIyWlLk6GJQsqaUBKTNV-1" source="R-zWGBTZfVwNPA_6gyD4-22" target="R-zWGBTZfVwNPA_6gyD4-24">
          <mxGeometry relative="1" as="geometry">
            <Array as="points">
              <mxPoint x="220" y="490" />
              <mxPoint x="450" y="490" />
              <mxPoint x="450" y="80" />
              <mxPoint x="573" y="80" />
              <mxPoint x="573" y="120" />
            </Array>
          </mxGeometry>
        </mxCell>
        <mxCell id="R-zWGBTZfVwNPA_6gyD4-22" value="Delay&lt;br&gt;&lt;font style=&quot;font-size: 9px&quot;&gt;(by FRS_OPTION)&lt;/font&gt;" style="rounded=1;whiteSpace=wrap;html=1;fontSize=12;glass=0;strokeWidth=1;shadow=0;" vertex="1" parent="WIyWlLk6GJQsqaUBKTNV-1">
          <mxGeometry x="172.5" y="440" width="95" height="40" as="geometry" />
        </mxCell>
        <mxCell id="R-zWGBTZfVwNPA_6gyD4-28" value="" style="edgeStyle=orthogonalEdgeStyle;rounded=0;orthogonalLoop=1;jettySize=auto;html=1;fontSize=9;" edge="1" parent="WIyWlLk6GJQsqaUBKTNV-1" source="R-zWGBTZfVwNPA_6gyD4-24" target="R-zWGBTZfVwNPA_6gyD4-26">
          <mxGeometry relative="1" as="geometry" />
        </mxCell>
        <mxCell id="R-zWGBTZfVwNPA_6gyD4-24" value="&lt;b&gt;0xAB&lt;/b&gt;&lt;br&gt;Release Power Down" style="whiteSpace=wrap;html=1;rounded=1;shadow=0;strokeWidth=1;glass=0;" vertex="1" parent="WIyWlLk6GJQsqaUBKTNV-1">
          <mxGeometry x="507.5" y="120" width="130" height="40" as="geometry" />
        </mxCell>
        <mxCell id="R-zWGBTZfVwNPA_6gyD4-31" value="" style="edgeStyle=orthogonalEdgeStyle;rounded=0;orthogonalLoop=1;jettySize=auto;html=1;fontSize=9;" edge="1" parent="WIyWlLk6GJQsqaUBKTNV-1" source="R-zWGBTZfVwNPA_6gyD4-26" target="R-zWGBTZfVwNPA_6gyD4-30">
          <mxGeometry relative="1" as="geometry" />
        </mxCell>
        <mxCell id="R-zWGBTZfVwNPA_6gyD4-26" value="Delay&lt;br&gt;(Approx. 78us)" style="rounded=1;whiteSpace=wrap;html=1;fontSize=12;glass=0;strokeWidth=1;shadow=0;" vertex="1" parent="WIyWlLk6GJQsqaUBKTNV-1">
          <mxGeometry x="525" y="180" width="95" height="40" as="geometry" />
        </mxCell>
        <mxCell id="R-zWGBTZfVwNPA_6gyD4-33" value="" style="edgeStyle=orthogonalEdgeStyle;rounded=0;orthogonalLoop=1;jettySize=auto;html=1;fontSize=9;" edge="1" parent="WIyWlLk6GJQsqaUBKTNV-1" source="R-zWGBTZfVwNPA_6gyD4-30" target="R-zWGBTZfVwNPA_6gyD4-32">
          <mxGeometry relative="1" as="geometry" />
        </mxCell>
        <mxCell id="R-zWGBTZfVwNPA_6gyD4-30" value="&lt;b&gt;0x6B &amp;amp;&lt;br&gt;Addr 3Byte+Dummy 1Byte&lt;/b&gt;" style="whiteSpace=wrap;html=1;rounded=1;shadow=0;strokeWidth=1;glass=0;" vertex="1" parent="WIyWlLk6GJQsqaUBKTNV-1">
          <mxGeometry x="492.5" y="240" width="160" height="40" as="geometry" />
        </mxCell>
        <mxCell id="R-zWGBTZfVwNPA_6gyD4-35" value="" style="edgeStyle=orthogonalEdgeStyle;rounded=0;orthogonalLoop=1;jettySize=auto;html=1;fontSize=14;" edge="1" parent="WIyWlLk6GJQsqaUBKTNV-1" source="R-zWGBTZfVwNPA_6gyD4-32" target="R-zWGBTZfVwNPA_6gyD4-34">
          <mxGeometry relative="1" as="geometry" />
        </mxCell>
        <mxCell id="R-zWGBTZfVwNPA_6gyD4-32" value="&lt;b style=&quot;font-size: 16px&quot;&gt;Data Read&lt;br&gt;&lt;/b&gt;Data + Checksum 1Byte&lt;br&gt;+ 0x00 2Byte" style="whiteSpace=wrap;html=1;rounded=1;shadow=0;strokeWidth=1;glass=0;" vertex="1" parent="WIyWlLk6GJQsqaUBKTNV-1">
          <mxGeometry x="492.5" y="310" width="160" height="60" as="geometry" />
        </mxCell>
        <mxCell id="R-zWGBTZfVwNPA_6gyD4-34" value="&lt;b&gt;Finished&lt;br&gt;Reading&lt;br&gt;All Addr?&lt;br&gt;&lt;/b&gt;" style="rhombus;whiteSpace=wrap;html=1;shadow=0;fontFamily=Helvetica;fontSize=12;align=center;strokeWidth=1;spacing=6;spacingTop=-4;" vertex="1" parent="WIyWlLk6GJQsqaUBKTNV-1">
          <mxGeometry x="522.5" y="390" width="100" height="80" as="geometry" />
        </mxCell>
        <mxCell id="R-zWGBTZfVwNPA_6gyD4-38" value="No" style="edgeStyle=orthogonalEdgeStyle;rounded=0;html=1;jettySize=auto;orthogonalLoop=1;fontSize=11;endArrow=block;endFill=0;endSize=8;strokeWidth=1;shadow=0;labelBackgroundColor=none;exitX=1;exitY=0.5;exitDx=0;exitDy=0;entryX=0;entryY=0.5;entryDx=0;entryDy=0;" edge="1" parent="WIyWlLk6GJQsqaUBKTNV-1" source="R-zWGBTZfVwNPA_6gyD4-34" target="R-zWGBTZfVwNPA_6gyD4-39">
          <mxGeometry x="-0.1429" y="10" relative="1" as="geometry">
            <mxPoint as="offset" />
            <mxPoint x="660" y="430" as="sourcePoint" />
            <mxPoint x="692.5" y="429.5" as="targetPoint" />
          </mxGeometry>
        </mxCell>
        <mxCell id="R-zWGBTZfVwNPA_6gyD4-50" style="edgeStyle=orthogonalEdgeStyle;rounded=0;orthogonalLoop=1;jettySize=auto;html=1;exitX=0.5;exitY=0;exitDx=0;exitDy=0;entryX=0.5;entryY=0;entryDx=0;entryDy=0;fontSize=14;" edge="1" parent="WIyWlLk6GJQsqaUBKTNV-1" source="R-zWGBTZfVwNPA_6gyD4-39" target="R-zWGBTZfVwNPA_6gyD4-24">
          <mxGeometry relative="1" as="geometry">
            <Array as="points">
              <mxPoint x="720" y="80" />
              <mxPoint x="573" y="80" />
            </Array>
          </mxGeometry>
        </mxCell>
        <mxCell id="R-zWGBTZfVwNPA_6gyD4-39" value="Repeat&lt;br&gt;With Next Address" style="rounded=1;whiteSpace=wrap;html=1;fontSize=12;glass=0;strokeWidth=1;shadow=0;" vertex="1" parent="WIyWlLk6GJQsqaUBKTNV-1">
          <mxGeometry x="680" y="405" width="80" height="50" as="geometry" />
        </mxCell>
        <mxCell id="R-zWGBTZfVwNPA_6gyD4-40" value="" style="endArrow=none;dashed=1;html=1;dashPattern=1 3;strokeWidth=2;rounded=0;fontSize=14;" edge="1" parent="WIyWlLk6GJQsqaUBKTNV-1">
          <mxGeometry width="50" height="50" relative="1" as="geometry">
            <mxPoint x="670" y="490" as="sourcePoint" />
            <mxPoint x="670" y="90" as="targetPoint" />
          </mxGeometry>
        </mxCell>
        <mxCell id="R-zWGBTZfVwNPA_6gyD4-45" value="" style="endArrow=none;dashed=1;html=1;dashPattern=1 3;strokeWidth=2;rounded=0;fontSize=14;" edge="1" parent="WIyWlLk6GJQsqaUBKTNV-1">
          <mxGeometry width="50" height="50" relative="1" as="geometry">
            <mxPoint x="480" y="490" as="sourcePoint" />
            <mxPoint x="480" y="90" as="targetPoint" />
          </mxGeometry>
        </mxCell>
        <mxCell id="R-zWGBTZfVwNPA_6gyD4-46" value="" style="endArrow=none;dashed=1;html=1;dashPattern=1 3;strokeWidth=2;rounded=0;fontSize=14;" edge="1" parent="WIyWlLk6GJQsqaUBKTNV-1">
          <mxGeometry width="50" height="50" relative="1" as="geometry">
            <mxPoint x="480" y="94.9" as="sourcePoint" />
            <mxPoint x="670" y="94.9" as="targetPoint" />
          </mxGeometry>
        </mxCell>
        <mxCell id="R-zWGBTZfVwNPA_6gyD4-47" value="" style="endArrow=none;dashed=1;html=1;dashPattern=1 3;strokeWidth=2;rounded=0;fontSize=14;" edge="1" parent="WIyWlLk6GJQsqaUBKTNV-1">
          <mxGeometry width="50" height="50" relative="1" as="geometry">
            <mxPoint x="480" y="490" as="sourcePoint" />
            <mxPoint x="670" y="490" as="targetPoint" />
          </mxGeometry>
        </mxCell>
        <mxCell id="R-zWGBTZfVwNPA_6gyD4-55" value="&lt;b&gt;0xB9&lt;br&gt;Power Down&lt;br&gt;&lt;/b&gt;" style="whiteSpace=wrap;html=1;rounded=1;shadow=0;strokeWidth=1;glass=0;" vertex="1" parent="WIyWlLk6GJQsqaUBKTNV-1">
          <mxGeometry x="507.5" y="510" width="130" height="50" as="geometry" />
        </mxCell>
        <mxCell id="R-zWGBTZfVwNPA_6gyD4-57" value="Yes" style="rounded=0;html=1;jettySize=auto;orthogonalLoop=1;fontSize=11;endArrow=block;endFill=0;endSize=8;strokeWidth=1;shadow=0;labelBackgroundColor=none;edgeStyle=orthogonalEdgeStyle;entryX=0.5;entryY=0;entryDx=0;entryDy=0;exitX=0.5;exitY=1;exitDx=0;exitDy=0;" edge="1" parent="WIyWlLk6GJQsqaUBKTNV-1" source="R-zWGBTZfVwNPA_6gyD4-34" target="R-zWGBTZfVwNPA_6gyD4-55">
          <mxGeometry x="-0.6" y="18" relative="1" as="geometry">
            <mxPoint as="offset" />
            <mxPoint x="580" y="540" as="sourcePoint" />
            <mxPoint x="580" y="570" as="targetPoint" />
          </mxGeometry>
        </mxCell>
      </root>
    </mxGraphModel>
  </diagram>
</mxfile>
